<svg width="97" height="29" viewBox="0 0 97 29" fill="none" xmlns="http://www.w3.org/2000/svg">
<path d="M5.22401 8.7V14.712H12.292V16.608H5.22401V24H2.89601V6.804H13.492V8.7H5.22401ZM18.1715 11.844V24H16.0354V11.844H18.1715ZM18.6274 8.028C18.6274 8.236 18.5834 8.432 18.4954 8.616C18.4154 8.792 18.3034 8.952 18.1594 9.096C18.0234 9.232 17.8594 9.34 17.6674 9.42C17.4834 9.5 17.2874 9.54 17.0794 9.54C16.8714 9.54 16.6754 9.5 16.4914 9.42C16.3154 9.34 16.1594 9.232 16.0234 9.096C15.8874 8.952 15.7794 8.792 15.6994 8.616C15.6194 8.432 15.5794 8.236 15.5794 8.028C15.5794 7.82 15.6194 7.624 15.6994 7.44C15.7794 7.248 15.8874 7.084 16.0234 6.948C16.1594 6.804 16.3154 6.692 16.4914 6.612C16.6754 6.532 16.8714 6.492 17.0794 6.492C17.2874 6.492 17.4834 6.532 17.6674 6.612C17.8594 6.692 18.0234 6.804 18.1594 6.948C18.3034 7.084 18.4154 7.248 18.4954 7.44C18.5834 7.624 18.6274 7.82 18.6274 8.028ZM25.4131 24.192C24.4531 24.192 23.7131 23.924 23.1931 23.388C22.6811 22.852 22.4251 22.08 22.4251 21.072V13.632H20.9611C20.8331 13.632 20.7251 13.596 20.6371 13.524C20.5491 13.444 20.5051 13.324 20.5051 13.164V12.312L22.4971 12.06L22.9891 8.304C23.0131 8.184 23.0651 8.088 23.1451 8.016C23.2331 7.936 23.3451 7.896 23.4811 7.896H24.5611V12.084H28.0771V13.632H24.5611V20.928C24.5611 21.44 24.6851 21.82 24.9331 22.068C25.1811 22.316 25.5011 22.44 25.8931 22.44C26.1171 22.44 26.3091 22.412 26.4691 22.356C26.6371 22.292 26.7811 22.224 26.9011 22.152C27.0211 22.08 27.1211 22.016 27.2011 21.96C27.2891 21.896 27.3651 21.864 27.4291 21.864C27.5411 21.864 27.6411 21.932 27.7291 22.068L28.3531 23.088C27.9851 23.432 27.5411 23.704 27.0211 23.904C26.5011 24.096 25.9651 24.192 25.4131 24.192ZM40.5273 15.528C39.6793 15.976 39.0393 16.52 38.6073 17.16C38.1833 17.8 37.9713 18.496 37.9713 19.248C37.9713 19.768 38.0673 20.228 38.2593 20.628C38.4513 21.02 38.7033 21.352 39.0153 21.624C39.3273 21.896 39.6833 22.104 40.0833 22.248C40.4833 22.384 40.8913 22.452 41.3073 22.452C42.2033 22.452 43.0073 22.288 43.7193 21.96C44.4393 21.632 45.0673 21.192 45.6033 20.64L40.5273 15.528ZM51.6153 24H49.5393C49.3073 24 49.1193 23.972 48.9753 23.916C48.8313 23.86 48.6753 23.744 48.5073 23.568L46.7673 21.816C46.0153 22.544 45.1473 23.124 44.1633 23.556C43.1873 23.98 42.1113 24.192 40.9353 24.192C40.2953 24.192 39.6673 24.084 39.0513 23.868C38.4433 23.652 37.8953 23.34 37.4073 22.932C36.9193 22.516 36.5273 22.012 36.2313 21.42C35.9353 20.828 35.7873 20.16 35.7873 19.416C35.7873 18.856 35.8793 18.328 36.0633 17.832C36.2553 17.328 36.5193 16.864 36.8553 16.44C37.1913 16.016 37.5873 15.636 38.0433 15.3C38.4993 14.964 38.9993 14.676 39.5433 14.436C39.0553 13.812 38.6953 13.212 38.4633 12.636C38.2313 12.052 38.1153 11.448 38.1153 10.824C38.1153 10.24 38.2193 9.692 38.4273 9.18C38.6433 8.668 38.9513 8.224 39.3513 7.848C39.7513 7.464 40.2353 7.164 40.8033 6.948C41.3793 6.724 42.0233 6.612 42.7353 6.612C43.3673 6.612 43.9433 6.716 44.4633 6.924C44.9833 7.124 45.4313 7.392 45.8073 7.728C46.1833 8.064 46.4793 8.456 46.6953 8.904C46.9193 9.344 47.0473 9.804 47.0793 10.284L45.7473 10.548C45.4833 10.612 45.2873 10.488 45.1593 10.176C45.1033 9.968 45.0113 9.752 44.8833 9.528C44.7633 9.304 44.6033 9.1 44.4033 8.916C44.2113 8.732 43.9753 8.58 43.6953 8.46C43.4233 8.34 43.1033 8.28 42.7353 8.28C42.3353 8.28 41.9713 8.344 41.6433 8.472C41.3233 8.6 41.0473 8.78 40.8153 9.012C40.5913 9.236 40.4193 9.504 40.2993 9.816C40.1793 10.12 40.1193 10.452 40.1193 10.812C40.1193 11.092 40.1513 11.36 40.2153 11.616C40.2793 11.872 40.3793 12.132 40.5153 12.396C40.6593 12.66 40.8393 12.928 41.0553 13.2C41.2713 13.472 41.5313 13.76 41.8353 14.064L46.7793 19.092C47.0833 18.548 47.3273 17.984 47.5113 17.4C47.6953 16.808 47.8153 16.22 47.8713 15.636C47.8873 15.484 47.9353 15.364 48.0153 15.276C48.0953 15.188 48.2073 15.144 48.3513 15.144H49.6593C49.6513 16.064 49.5073 16.968 49.2273 17.856C48.9473 18.736 48.5433 19.564 48.0153 20.34L51.6153 24Z" fill="#81B133"/>
<rect x="81.6" y="11.8" width="2.15" height="12.2" fill="#3F3F3F"/>
<path d="M60.524 8.7V14.712H67.592V16.608H60.524V24H58.196V6.804H68.792V8.7H60.524ZM76.1394 18.528C75.1554 18.56 74.3154 18.64 73.6194 18.768C72.9314 18.888 72.3674 19.048 71.9274 19.248C71.4954 19.448 71.1794 19.684 70.9794 19.956C70.7874 20.228 70.6914 20.532 70.6914 20.868C70.6914 21.188 70.7434 21.464 70.8474 21.696C70.9514 21.928 71.0914 22.12 71.2674 22.272C71.4514 22.416 71.6634 22.524 71.9034 22.596C72.1514 22.66 72.4154 22.692 72.6954 22.692C73.0714 22.692 73.4154 22.656 73.7274 22.584C74.0394 22.504 74.3314 22.392 74.6034 22.248C74.8834 22.104 75.1474 21.932 75.3954 21.732C75.6514 21.532 75.8994 21.304 76.1394 21.048V18.528ZM69.2394 13.56C69.9114 12.912 70.6354 12.428 71.4114 12.108C72.1874 11.788 73.0474 11.628 73.9914 11.628C74.6714 11.628 75.2754 11.74 75.8034 11.964C76.3314 12.188 76.7754 12.5 77.1354 12.9C77.4954 13.3 77.7674 13.784 77.9514 14.352C78.1354 14.92 78.2274 15.544 78.2274 16.224V24H77.2794C77.0714 24 76.9114 23.968 76.7994 23.904C76.6874 23.832 76.5994 23.696 76.5354 23.496L76.2954 22.344C75.9754 22.64 75.6634 22.904 75.3594 23.136C75.0554 23.36 74.7354 23.552 74.3994 23.712C74.0634 23.864 73.7034 23.98 73.3194 24.06C72.9434 24.148 72.5234 24.192 72.0594 24.192C71.5874 24.192 71.1434 24.128 70.7274 24C70.3114 23.864 69.9474 23.664 69.6354 23.4C69.3314 23.136 69.0874 22.804 68.9034 22.404C68.7274 21.996 68.6394 21.516 68.6394 20.964C68.6394 20.484 68.7714 20.024 69.0354 19.584C69.2994 19.136 69.7274 18.74 70.3194 18.396C70.9114 18.052 71.6834 17.772 72.6354 17.556C73.5874 17.332 74.7554 17.204 76.1394 17.172V16.224C76.1394 15.28 75.9354 14.568 75.5274 14.088C75.1194 13.6 74.5234 13.356 73.7394 13.356C73.2114 13.356 72.7674 13.424 72.4074 13.56C72.0554 13.688 71.7474 13.836 71.4834 14.004C71.2274 14.164 71.0034 14.312 70.8114 14.448C70.6274 14.576 70.4434 14.64 70.2594 14.64C70.1154 14.64 69.9914 14.604 69.8874 14.532C69.7834 14.452 69.6954 14.356 69.6234 14.244L69.2394 13.56ZM89.6497 14.28C90.0337 13.448 90.5057 12.8 91.0657 12.336C91.6257 11.864 92.3097 11.628 93.1177 11.628C93.3737 11.628 93.6177 11.656 93.8497 11.712C94.0897 11.768 94.3017 11.856 94.4857 11.976L94.3297 13.572C94.2817 13.772 94.1617 13.872 93.9697 13.872C93.8577 13.872 93.6937 13.848 93.4777 13.8C93.2617 13.752 93.0177 13.728 92.7457 13.728C92.3617 13.728 92.0177 13.784 91.7137 13.896C91.4177 14.008 91.1497 14.176 90.9097 14.4C90.6777 14.616 90.4657 14.888 90.2737 15.216C90.0897 15.536 89.9217 15.904 89.7697 16.32V24H87.6217V11.844H88.8457C89.0777 11.844 89.2377 11.888 89.3257 11.976C89.4137 12.064 89.4737 12.216 89.5057 12.432L89.6497 14.28Z" fill="#3F3F3F"/>
<path d="M82.7562 10.1175C82.2315 10.0802 81.9572 9.89106 81.8163 9.68116C81.8433 9.17017 81.9215 8.53371 82.1414 7.9561C82.2675 7.62534 82.4464 7.3259 82.6658 7.1058C82.9058 6.84343 83.1275 6.64155 83.3508 6.47508C83.7918 6.14851 84.1786 6.00624 84.301 5.9562C84.4248 5.90843 84.6469 5.81863 84.9155 5.71865C85.1833 5.62694 85.5077 5.49423 85.7846 5.33197C86.3522 5.02158 86.8227 4.67131 86.822 4.67118C86.8229 4.67131 86.3199 4.95012 85.7354 5.18154C85.4404 5.30726 85.1391 5.38991 84.8579 5.45501C84.5811 5.52619 84.3474 5.59867 84.2186 5.64847C83.9779 5.74896 82.5358 6.21042 81.7992 7.75729C81.6326 8.15239 81.5281 8.5611 81.4604 8.94408C81.2939 8.8501 81.0866 8.66821 81.0302 8.33158C80.9318 7.74506 80.9865 5.9851 82.5814 5.00744C84.1764 4.02989 85.9571 4.22527 86.8092 3.93857C87.6613 3.65186 88 3 88 3C88 3 87.2899 9.63518 82.7562 10.1175Z" fill="#81B133"/>
</svg>
